<mxfile host="app.diagrams.net" agent="Mozilla/5.0 (X11; Ubuntu; Linux x86_64; rv:131.0) Gecko/20100101 Firefox/131.0" version="24.8.1">
  <diagram name="Page-1" id="HW4hlnx2Zl5zD3kxZCns">
    <mxGraphModel dx="1936" dy="995" grid="1" gridSize="10" guides="1" tooltips="1" connect="1" arrows="1" fold="1" page="1" pageScale="1" pageWidth="827" pageHeight="1169" math="0" shadow="0">
      <root>
        <mxCell id="0" />
        <mxCell id="1" parent="0" />
        <mxCell id="e_1VgkBawEJqVITWCL-5-8" value="" style="rounded=0;whiteSpace=wrap;html=1;" vertex="1" parent="1">
          <mxGeometry x="150" y="40" width="710" height="1050" as="geometry" />
        </mxCell>
        <mxCell id="PNNhrd_-MMX24OhyJ-Kb-3" value="Visiteur" style="shape=umlActor;verticalLabelPosition=bottom;verticalAlign=top;html=1;outlineConnect=0;" parent="1" vertex="1">
          <mxGeometry x="40" y="255" width="30" height="60" as="geometry" />
        </mxCell>
        <mxCell id="PNNhrd_-MMX24OhyJ-Kb-8" value="&lt;div&gt;Administrateur&lt;/div&gt;&lt;div&gt;&amp;nbsp;(Traiteur)&lt;/div&gt;" style="shape=umlActor;verticalLabelPosition=bottom;verticalAlign=top;html=1;outlineConnect=0;" parent="1" vertex="1">
          <mxGeometry x="40" y="762" width="30" height="60" as="geometry" />
        </mxCell>
        <mxCell id="PNNhrd_-MMX24OhyJ-Kb-16" value="Consulter profil" style="ellipse;whiteSpace=wrap;html=1;" parent="1" vertex="1">
          <mxGeometry x="250" y="700" width="80" height="50" as="geometry" />
        </mxCell>
        <mxCell id="PNNhrd_-MMX24OhyJ-Kb-17" value="&lt;div&gt;Consulter&lt;/div&gt;&lt;div&gt;nouveauté&lt;br&gt;&lt;/div&gt;" style="ellipse;whiteSpace=wrap;html=1;" parent="1" vertex="1">
          <mxGeometry x="250" y="225" width="80" height="50" as="geometry" />
        </mxCell>
        <mxCell id="PNNhrd_-MMX24OhyJ-Kb-18" value="&lt;div&gt;Consulter&lt;/div&gt;&lt;div&gt;Accueil&lt;/div&gt;" style="ellipse;whiteSpace=wrap;html=1;" parent="1" vertex="1">
          <mxGeometry x="250" y="155" width="80" height="50" as="geometry" />
        </mxCell>
        <mxCell id="PNNhrd_-MMX24OhyJ-Kb-19" value="Consulter Contacts" style="ellipse;whiteSpace=wrap;html=1;" parent="1" vertex="1">
          <mxGeometry x="250" y="295" width="80" height="50" as="geometry" />
        </mxCell>
        <mxCell id="PNNhrd_-MMX24OhyJ-Kb-20" value="&lt;div&gt;Consulter&amp;nbsp;&lt;/div&gt;&lt;div&gt;&quot;à propos&quot;&lt;/div&gt;" style="ellipse;whiteSpace=wrap;html=1;" parent="1" vertex="1">
          <mxGeometry x="250" y="365" width="80" height="50" as="geometry" />
        </mxCell>
        <mxCell id="PNNhrd_-MMX24OhyJ-Kb-21" value="Commander" style="ellipse;whiteSpace=wrap;html=1;" parent="1" vertex="1">
          <mxGeometry x="250" y="430" width="80" height="50" as="geometry" />
        </mxCell>
        <mxCell id="PNNhrd_-MMX24OhyJ-Kb-22" value="" style="endArrow=none;html=1;rounded=0;" parent="1" source="PNNhrd_-MMX24OhyJ-Kb-3" target="PNNhrd_-MMX24OhyJ-Kb-18" edge="1">
          <mxGeometry width="50" height="50" relative="1" as="geometry">
            <mxPoint x="390" y="445" as="sourcePoint" />
            <mxPoint x="440" y="395" as="targetPoint" />
          </mxGeometry>
        </mxCell>
        <mxCell id="PNNhrd_-MMX24OhyJ-Kb-23" value="" style="endArrow=none;html=1;rounded=0;" parent="1" source="PNNhrd_-MMX24OhyJ-Kb-3" target="PNNhrd_-MMX24OhyJ-Kb-17" edge="1">
          <mxGeometry width="50" height="50" relative="1" as="geometry">
            <mxPoint x="390" y="445" as="sourcePoint" />
            <mxPoint x="440" y="395" as="targetPoint" />
          </mxGeometry>
        </mxCell>
        <mxCell id="PNNhrd_-MMX24OhyJ-Kb-24" value="" style="endArrow=none;html=1;rounded=0;" parent="1" source="PNNhrd_-MMX24OhyJ-Kb-3" target="PNNhrd_-MMX24OhyJ-Kb-19" edge="1">
          <mxGeometry width="50" height="50" relative="1" as="geometry">
            <mxPoint x="390" y="445" as="sourcePoint" />
            <mxPoint x="440" y="395" as="targetPoint" />
          </mxGeometry>
        </mxCell>
        <mxCell id="PNNhrd_-MMX24OhyJ-Kb-25" value="" style="endArrow=none;html=1;rounded=0;" parent="1" source="PNNhrd_-MMX24OhyJ-Kb-3" target="PNNhrd_-MMX24OhyJ-Kb-20" edge="1">
          <mxGeometry width="50" height="50" relative="1" as="geometry">
            <mxPoint x="390" y="445" as="sourcePoint" />
            <mxPoint x="440" y="395" as="targetPoint" />
          </mxGeometry>
        </mxCell>
        <mxCell id="PNNhrd_-MMX24OhyJ-Kb-28" value="" style="endArrow=none;html=1;rounded=0;" parent="1" source="PNNhrd_-MMX24OhyJ-Kb-3" target="PNNhrd_-MMX24OhyJ-Kb-21" edge="1">
          <mxGeometry width="50" height="50" relative="1" as="geometry">
            <mxPoint x="20" y="395" as="sourcePoint" />
            <mxPoint x="213" y="530" as="targetPoint" />
          </mxGeometry>
        </mxCell>
        <mxCell id="PNNhrd_-MMX24OhyJ-Kb-29" value="Supprimer" style="ellipse;whiteSpace=wrap;html=1;" parent="1" vertex="1">
          <mxGeometry x="414" y="857" width="80" height="50" as="geometry" />
        </mxCell>
        <mxCell id="PNNhrd_-MMX24OhyJ-Kb-30" value="Ajouter" style="ellipse;whiteSpace=wrap;html=1;" parent="1" vertex="1">
          <mxGeometry x="414" y="804" width="80" height="50" as="geometry" />
        </mxCell>
        <mxCell id="PNNhrd_-MMX24OhyJ-Kb-31" value="&lt;div&gt;Modifier&amp;nbsp;&lt;/div&gt;&lt;div&gt;offre/plats&lt;/div&gt;" style="ellipse;whiteSpace=wrap;html=1;" parent="1" vertex="1">
          <mxGeometry x="250" y="910" width="80" height="50" as="geometry" />
        </mxCell>
        <mxCell id="Q2o_22POg9G5HLiP5tjA-1" value="Client" style="shape=umlActor;verticalLabelPosition=bottom;verticalAlign=top;html=1;outlineConnect=0;" parent="1" vertex="1">
          <mxGeometry x="40" y="600" width="30" height="60" as="geometry" />
        </mxCell>
        <mxCell id="Q2o_22POg9G5HLiP5tjA-2" value="" style="endArrow=none;html=1;rounded=0;" parent="1" source="PNNhrd_-MMX24OhyJ-Kb-8" target="PNNhrd_-MMX24OhyJ-Kb-31" edge="1">
          <mxGeometry width="50" height="50" relative="1" as="geometry">
            <mxPoint x="450" y="620" as="sourcePoint" />
            <mxPoint x="500" y="570" as="targetPoint" />
          </mxGeometry>
        </mxCell>
        <mxCell id="Q2o_22POg9G5HLiP5tjA-7" value="" style="endArrow=block;html=1;rounded=0;endFill=0;" parent="1" edge="1">
          <mxGeometry width="50" height="50" relative="1" as="geometry">
            <mxPoint x="55" y="590" as="sourcePoint" />
            <mxPoint x="55" y="340" as="targetPoint" />
          </mxGeometry>
        </mxCell>
        <mxCell id="Q2o_22POg9G5HLiP5tjA-8" value="Modifier informations" style="ellipse;whiteSpace=wrap;html=1;" parent="1" vertex="1">
          <mxGeometry x="417" y="620" width="80" height="50" as="geometry" />
        </mxCell>
        <mxCell id="Q2o_22POg9G5HLiP5tjA-10" value="Consulter points de fidélité" style="ellipse;whiteSpace=wrap;html=1;" parent="1" vertex="1">
          <mxGeometry x="417" y="675" width="80" height="50" as="geometry" />
        </mxCell>
        <mxCell id="Q2o_22POg9G5HLiP5tjA-11" value="Consulter prestations" style="ellipse;whiteSpace=wrap;html=1;" parent="1" vertex="1">
          <mxGeometry x="410" y="155" width="80" height="50" as="geometry" />
        </mxCell>
        <mxCell id="Q2o_22POg9G5HLiP5tjA-12" value="Consulter plats" style="ellipse;whiteSpace=wrap;html=1;" parent="1" vertex="1">
          <mxGeometry x="410" y="208" width="80" height="50" as="geometry" />
        </mxCell>
        <mxCell id="Q2o_22POg9G5HLiP5tjA-13" value="Consulter horaires" style="ellipse;whiteSpace=wrap;html=1;" parent="1" vertex="1">
          <mxGeometry x="410" y="100" width="80" height="50" as="geometry" />
        </mxCell>
        <mxCell id="Q2o_22POg9G5HLiP5tjA-14" value="" style="endArrow=block;html=1;rounded=0;endFill=0;exitX=0;exitY=0.5;exitDx=0;exitDy=0;" parent="1" source="Q2o_22POg9G5HLiP5tjA-13" target="PNNhrd_-MMX24OhyJ-Kb-18" edge="1">
          <mxGeometry width="50" height="50" relative="1" as="geometry">
            <mxPoint x="65" y="610" as="sourcePoint" />
            <mxPoint x="65" y="325" as="targetPoint" />
          </mxGeometry>
        </mxCell>
        <mxCell id="Q2o_22POg9G5HLiP5tjA-15" value="" style="endArrow=block;html=1;rounded=0;endFill=0;" parent="1" source="Q2o_22POg9G5HLiP5tjA-11" target="PNNhrd_-MMX24OhyJ-Kb-18" edge="1">
          <mxGeometry width="50" height="50" relative="1" as="geometry">
            <mxPoint x="420" y="155" as="sourcePoint" />
            <mxPoint x="336" y="180" as="targetPoint" />
          </mxGeometry>
        </mxCell>
        <mxCell id="Q2o_22POg9G5HLiP5tjA-16" value="" style="endArrow=block;html=1;rounded=0;endFill=0;" parent="1" source="Q2o_22POg9G5HLiP5tjA-12" target="PNNhrd_-MMX24OhyJ-Kb-18" edge="1">
          <mxGeometry width="50" height="50" relative="1" as="geometry">
            <mxPoint x="430" y="165" as="sourcePoint" />
            <mxPoint x="346" y="190" as="targetPoint" />
          </mxGeometry>
        </mxCell>
        <mxCell id="Q2o_22POg9G5HLiP5tjA-17" value="" style="endArrow=block;html=1;rounded=0;endFill=0;" parent="1" source="PNNhrd_-MMX24OhyJ-Kb-30" target="PNNhrd_-MMX24OhyJ-Kb-31" edge="1">
          <mxGeometry width="50" height="50" relative="1" as="geometry">
            <mxPoint x="428" y="253" as="sourcePoint" />
            <mxPoint x="332" y="205" as="targetPoint" />
          </mxGeometry>
        </mxCell>
        <mxCell id="Q2o_22POg9G5HLiP5tjA-18" value="" style="endArrow=block;html=1;rounded=0;endFill=0;" parent="1" source="PNNhrd_-MMX24OhyJ-Kb-29" target="PNNhrd_-MMX24OhyJ-Kb-31" edge="1">
          <mxGeometry width="50" height="50" relative="1" as="geometry">
            <mxPoint x="414" y="784" as="sourcePoint" />
            <mxPoint x="336" y="806" as="targetPoint" />
          </mxGeometry>
        </mxCell>
        <mxCell id="Q2o_22POg9G5HLiP5tjA-21" value="" style="endArrow=classic;html=1;rounded=0;dashed=1;" parent="1" source="PNNhrd_-MMX24OhyJ-Kb-21" target="Q2o_22POg9G5HLiP5tjA-22" edge="1">
          <mxGeometry width="50" height="50" relative="1" as="geometry">
            <mxPoint x="420" y="490" as="sourcePoint" />
            <mxPoint x="470" y="440" as="targetPoint" />
          </mxGeometry>
        </mxCell>
        <mxCell id="Q2o_22POg9G5HLiP5tjA-23" value="Includes" style="edgeLabel;html=1;align=center;verticalAlign=bottom;resizable=0;points=[];" parent="Q2o_22POg9G5HLiP5tjA-21" connectable="0" vertex="1">
          <mxGeometry x="-0.1636" y="-2" relative="1" as="geometry">
            <mxPoint x="-1" as="offset" />
          </mxGeometry>
        </mxCell>
        <mxCell id="Q2o_22POg9G5HLiP5tjA-22" value="Ajouter plats dans panier" style="ellipse;whiteSpace=wrap;html=1;" parent="1" vertex="1">
          <mxGeometry x="510" y="343" width="80" height="50" as="geometry" />
        </mxCell>
        <mxCell id="Q2o_22POg9G5HLiP5tjA-25" value="&lt;font style=&quot;font-size: 24px;&quot;&gt;Oumami&lt;/font&gt;" style="text;html=1;align=center;verticalAlign=middle;whiteSpace=wrap;rounded=0;" parent="1" vertex="1">
          <mxGeometry x="475" y="50" width="60" height="30" as="geometry" />
        </mxCell>
        <mxCell id="Q2o_22POg9G5HLiP5tjA-26" value="Télécharger menu" style="ellipse;whiteSpace=wrap;html=1;" parent="1" vertex="1">
          <mxGeometry x="410" y="270" width="80" height="50" as="geometry" />
        </mxCell>
        <mxCell id="Q2o_22POg9G5HLiP5tjA-27" value="" style="endArrow=classic;html=1;rounded=0;dashed=1;" parent="1" source="Q2o_22POg9G5HLiP5tjA-26" target="PNNhrd_-MMX24OhyJ-Kb-18" edge="1">
          <mxGeometry width="50" height="50" relative="1" as="geometry">
            <mxPoint x="420" y="530" as="sourcePoint" />
            <mxPoint x="470" y="480" as="targetPoint" />
          </mxGeometry>
        </mxCell>
        <mxCell id="Q2o_22POg9G5HLiP5tjA-28" value="extends" style="edgeLabel;html=1;align=center;verticalAlign=middle;resizable=0;points=[];" parent="Q2o_22POg9G5HLiP5tjA-27" connectable="0" vertex="1">
          <mxGeometry x="-0.1839" y="1" relative="1" as="geometry">
            <mxPoint as="offset" />
          </mxGeometry>
        </mxCell>
        <mxCell id="Q2o_22POg9G5HLiP5tjA-29" value="" style="endArrow=block;html=1;rounded=0;endFill=0;" parent="1" source="Q2o_22POg9G5HLiP5tjA-8" target="PNNhrd_-MMX24OhyJ-Kb-16" edge="1">
          <mxGeometry width="50" height="50" relative="1" as="geometry">
            <mxPoint x="648" y="560" as="sourcePoint" />
            <mxPoint x="560" y="600" as="targetPoint" />
          </mxGeometry>
        </mxCell>
        <mxCell id="Q2o_22POg9G5HLiP5tjA-30" value="" style="endArrow=block;html=1;rounded=0;endFill=0;" parent="1" source="Q2o_22POg9G5HLiP5tjA-10" target="PNNhrd_-MMX24OhyJ-Kb-16" edge="1">
          <mxGeometry width="50" height="50" relative="1" as="geometry">
            <mxPoint x="430" y="145" as="sourcePoint" />
            <mxPoint x="342" y="185" as="targetPoint" />
          </mxGeometry>
        </mxCell>
        <mxCell id="Q2o_22POg9G5HLiP5tjA-31" value="" style="endArrow=none;html=1;rounded=0;" parent="1" source="Q2o_22POg9G5HLiP5tjA-1" target="PNNhrd_-MMX24OhyJ-Kb-16" edge="1">
          <mxGeometry width="50" height="50" relative="1" as="geometry">
            <mxPoint x="420" y="530" as="sourcePoint" />
            <mxPoint x="470" y="480" as="targetPoint" />
          </mxGeometry>
        </mxCell>
        <mxCell id="Q2o_22POg9G5HLiP5tjA-33" value="Editer" style="ellipse;whiteSpace=wrap;html=1;" parent="1" vertex="1">
          <mxGeometry x="417" y="910" width="80" height="50" as="geometry" />
        </mxCell>
        <mxCell id="Q2o_22POg9G5HLiP5tjA-34" value="" style="endArrow=block;html=1;rounded=0;endFill=0;" parent="1" source="Q2o_22POg9G5HLiP5tjA-33" target="PNNhrd_-MMX24OhyJ-Kb-31" edge="1">
          <mxGeometry width="50" height="50" relative="1" as="geometry">
            <mxPoint x="410" y="807" as="sourcePoint" />
            <mxPoint x="340" y="814" as="targetPoint" />
          </mxGeometry>
        </mxCell>
        <mxCell id="Q2o_22POg9G5HLiP5tjA-35" value="Gérer stocks" style="ellipse;whiteSpace=wrap;html=1;" parent="1" vertex="1">
          <mxGeometry x="250" y="790" width="80" height="50" as="geometry" />
        </mxCell>
        <mxCell id="Q2o_22POg9G5HLiP5tjA-36" value="" style="endArrow=none;html=1;rounded=0;" parent="1" target="Q2o_22POg9G5HLiP5tjA-35" edge="1">
          <mxGeometry width="50" height="50" relative="1" as="geometry">
            <mxPoint x="70" y="800" as="sourcePoint" />
            <mxPoint x="470" y="550" as="targetPoint" />
          </mxGeometry>
        </mxCell>
        <mxCell id="Q2o_22POg9G5HLiP5tjA-42" value="Renseigner informations personnelles" style="ellipse;whiteSpace=wrap;html=1;" parent="1" vertex="1">
          <mxGeometry x="510" y="467" width="80" height="50" as="geometry" />
        </mxCell>
        <mxCell id="Q2o_22POg9G5HLiP5tjA-43" value="" style="endArrow=classic;html=1;rounded=0;dashed=1;" parent="1" source="PNNhrd_-MMX24OhyJ-Kb-21" target="Q2o_22POg9G5HLiP5tjA-42" edge="1">
          <mxGeometry width="50" height="50" relative="1" as="geometry">
            <mxPoint x="328" y="512" as="sourcePoint" />
            <mxPoint x="432" y="443" as="targetPoint" />
          </mxGeometry>
        </mxCell>
        <mxCell id="Q2o_22POg9G5HLiP5tjA-44" value="Includes" style="edgeLabel;html=1;align=center;verticalAlign=bottom;resizable=0;points=[];" parent="Q2o_22POg9G5HLiP5tjA-43" connectable="0" vertex="1">
          <mxGeometry x="-0.1636" y="-2" relative="1" as="geometry">
            <mxPoint x="-1" as="offset" />
          </mxGeometry>
        </mxCell>
        <mxCell id="3OQd15fnaAW8jSOa3x7e-8" style="rounded=0;orthogonalLoop=1;jettySize=auto;html=1;exitX=1;exitY=0.5;exitDx=0;exitDy=0;endArrow=none;endFill=0;" parent="1" source="Q2o_22POg9G5HLiP5tjA-45" target="3OQd15fnaAW8jSOa3x7e-5" edge="1">
          <mxGeometry relative="1" as="geometry" />
        </mxCell>
        <mxCell id="Q2o_22POg9G5HLiP5tjA-45" value="Renseigner informations banquaires" style="ellipse;whiteSpace=wrap;html=1;" parent="1" vertex="1">
          <mxGeometry x="510" y="403" width="80" height="50" as="geometry" />
        </mxCell>
        <mxCell id="Q2o_22POg9G5HLiP5tjA-46" value="Choisir prestation" style="ellipse;whiteSpace=wrap;html=1;" parent="1" vertex="1">
          <mxGeometry x="510" y="535" width="80" height="50" as="geometry" />
        </mxCell>
        <mxCell id="Q2o_22POg9G5HLiP5tjA-49" value="" style="endArrow=classic;html=1;rounded=0;dashed=1;" parent="1" source="PNNhrd_-MMX24OhyJ-Kb-21" target="Q2o_22POg9G5HLiP5tjA-46" edge="1">
          <mxGeometry width="50" height="50" relative="1" as="geometry">
            <mxPoint x="346" y="529" as="sourcePoint" />
            <mxPoint x="434" y="500" as="targetPoint" />
          </mxGeometry>
        </mxCell>
        <mxCell id="Q2o_22POg9G5HLiP5tjA-50" value="Includes" style="edgeLabel;html=1;align=center;verticalAlign=bottom;resizable=0;points=[];" parent="Q2o_22POg9G5HLiP5tjA-49" connectable="0" vertex="1">
          <mxGeometry x="-0.1636" y="-2" relative="1" as="geometry">
            <mxPoint x="-1" as="offset" />
          </mxGeometry>
        </mxCell>
        <mxCell id="Q2o_22POg9G5HLiP5tjA-51" value="&lt;span class=&quot;title&quot;&gt;Plats à emporter&lt;/span&gt;" style="ellipse;whiteSpace=wrap;html=1;" parent="1" vertex="1">
          <mxGeometry x="670" y="625" width="80" height="50" as="geometry" />
        </mxCell>
        <mxCell id="Q2o_22POg9G5HLiP5tjA-52" value="&lt;span class=&quot;title&quot;&gt;Bentô&lt;/span&gt;" style="ellipse;whiteSpace=wrap;html=1;" parent="1" vertex="1">
          <mxGeometry x="670" y="567" width="80" height="50" as="geometry" />
        </mxCell>
        <mxCell id="Q2o_22POg9G5HLiP5tjA-53" value="&lt;span class=&quot;texte-light&quot;&gt;restauration sur place&lt;/span&gt;" style="ellipse;whiteSpace=wrap;html=1;" parent="1" vertex="1">
          <mxGeometry x="670" y="685" width="80" height="50" as="geometry" />
        </mxCell>
        <mxCell id="Q2o_22POg9G5HLiP5tjA-54" value="&lt;span class=&quot;title&quot;&gt;Réception&lt;/span&gt;" style="ellipse;whiteSpace=wrap;html=1;" parent="1" vertex="1">
          <mxGeometry x="670" y="505" width="80" height="50" as="geometry" />
        </mxCell>
        <mxCell id="Q2o_22POg9G5HLiP5tjA-55" value="" style="endArrow=block;html=1;rounded=0;endFill=0;" parent="1" source="Q2o_22POg9G5HLiP5tjA-54" target="Q2o_22POg9G5HLiP5tjA-46" edge="1">
          <mxGeometry width="50" height="50" relative="1" as="geometry">
            <mxPoint x="827" y="390" as="sourcePoint" />
            <mxPoint x="739" y="430" as="targetPoint" />
          </mxGeometry>
        </mxCell>
        <mxCell id="Q2o_22POg9G5HLiP5tjA-56" value="" style="endArrow=block;html=1;rounded=0;endFill=0;" parent="1" source="Q2o_22POg9G5HLiP5tjA-52" target="Q2o_22POg9G5HLiP5tjA-46" edge="1">
          <mxGeometry width="50" height="50" relative="1" as="geometry">
            <mxPoint x="430" y="145" as="sourcePoint" />
            <mxPoint x="342" y="185" as="targetPoint" />
          </mxGeometry>
        </mxCell>
        <mxCell id="Q2o_22POg9G5HLiP5tjA-58" value="" style="endArrow=block;html=1;rounded=0;endFill=0;" parent="1" source="Q2o_22POg9G5HLiP5tjA-51" target="Q2o_22POg9G5HLiP5tjA-46" edge="1">
          <mxGeometry width="50" height="50" relative="1" as="geometry">
            <mxPoint x="583" y="556" as="sourcePoint" />
            <mxPoint x="496" y="578" as="targetPoint" />
          </mxGeometry>
        </mxCell>
        <mxCell id="Q2o_22POg9G5HLiP5tjA-59" value="" style="endArrow=block;html=1;rounded=0;endFill=0;" parent="1" source="Q2o_22POg9G5HLiP5tjA-53" target="Q2o_22POg9G5HLiP5tjA-46" edge="1">
          <mxGeometry width="50" height="50" relative="1" as="geometry">
            <mxPoint x="593" y="566" as="sourcePoint" />
            <mxPoint x="506" y="588" as="targetPoint" />
          </mxGeometry>
        </mxCell>
        <mxCell id="Q2o_22POg9G5HLiP5tjA-60" value="&lt;div&gt;Choisir horaire&lt;/div&gt;" style="ellipse;whiteSpace=wrap;html=1;" parent="1" vertex="1">
          <mxGeometry x="510" y="290" width="80" height="50" as="geometry" />
        </mxCell>
        <mxCell id="Q2o_22POg9G5HLiP5tjA-61" value="" style="endArrow=classic;html=1;rounded=0;dashed=1;" parent="1" source="PNNhrd_-MMX24OhyJ-Kb-21" target="Q2o_22POg9G5HLiP5tjA-60" edge="1">
          <mxGeometry width="50" height="50" relative="1" as="geometry">
            <mxPoint x="328" y="512" as="sourcePoint" />
            <mxPoint x="432" y="443" as="targetPoint" />
          </mxGeometry>
        </mxCell>
        <mxCell id="Q2o_22POg9G5HLiP5tjA-62" value="Includes" style="edgeLabel;html=1;align=center;verticalAlign=bottom;resizable=0;points=[];" parent="Q2o_22POg9G5HLiP5tjA-61" connectable="0" vertex="1">
          <mxGeometry x="-0.1636" y="-2" relative="1" as="geometry">
            <mxPoint x="-1" as="offset" />
          </mxGeometry>
        </mxCell>
        <mxCell id="Q2o_22POg9G5HLiP5tjA-63" value="" style="endArrow=classic;html=1;rounded=0;dashed=1;" parent="1" source="Q2o_22POg9G5HLiP5tjA-45" target="PNNhrd_-MMX24OhyJ-Kb-21" edge="1">
          <mxGeometry width="50" height="50" relative="1" as="geometry">
            <mxPoint x="434" y="647" as="sourcePoint" />
            <mxPoint x="326" y="570" as="targetPoint" />
          </mxGeometry>
        </mxCell>
        <mxCell id="Q2o_22POg9G5HLiP5tjA-64" value="extends" style="edgeLabel;html=1;align=center;verticalAlign=bottom;resizable=0;points=[];labelPosition=center;verticalLabelPosition=top;" parent="Q2o_22POg9G5HLiP5tjA-63" connectable="0" vertex="1">
          <mxGeometry x="-0.1839" y="1" relative="1" as="geometry">
            <mxPoint as="offset" />
          </mxGeometry>
        </mxCell>
        <mxCell id="Q2o_22POg9G5HLiP5tjA-66" value="&lt;div&gt;Se connecter&lt;/div&gt;" style="ellipse;whiteSpace=wrap;html=1;" parent="1" vertex="1">
          <mxGeometry x="250" y="640" width="80" height="50" as="geometry" />
        </mxCell>
        <mxCell id="Q2o_22POg9G5HLiP5tjA-67" value="" style="endArrow=none;html=1;rounded=0;" parent="1" source="Q2o_22POg9G5HLiP5tjA-1" target="Q2o_22POg9G5HLiP5tjA-66" edge="1">
          <mxGeometry width="50" height="50" relative="1" as="geometry">
            <mxPoint x="800" y="550" as="sourcePoint" />
            <mxPoint x="850" y="500" as="targetPoint" />
          </mxGeometry>
        </mxCell>
        <mxCell id="XGBjS8UDhGrHbcckDDbh-1" value="Modifier commande" style="ellipse;whiteSpace=wrap;html=1;" parent="1" vertex="1">
          <mxGeometry x="250" y="483" width="80" height="50" as="geometry" />
        </mxCell>
        <mxCell id="XGBjS8UDhGrHbcckDDbh-5" value="" style="endArrow=none;html=1;rounded=0;" parent="1" source="PNNhrd_-MMX24OhyJ-Kb-3" target="XGBjS8UDhGrHbcckDDbh-1" edge="1">
          <mxGeometry width="50" height="50" relative="1" as="geometry">
            <mxPoint x="900" y="450" as="sourcePoint" />
            <mxPoint x="950" y="400" as="targetPoint" />
          </mxGeometry>
        </mxCell>
        <mxCell id="XGBjS8UDhGrHbcckDDbh-6" value="Consulter panier" style="ellipse;whiteSpace=wrap;html=1;" parent="1" vertex="1">
          <mxGeometry x="250" y="540" width="80" height="50" as="geometry" />
        </mxCell>
        <mxCell id="XGBjS8UDhGrHbcckDDbh-8" value="" style="endArrow=none;html=1;rounded=0;" parent="1" source="PNNhrd_-MMX24OhyJ-Kb-3" target="XGBjS8UDhGrHbcckDDbh-6" edge="1">
          <mxGeometry width="50" height="50" relative="1" as="geometry">
            <mxPoint x="900" y="450" as="sourcePoint" />
            <mxPoint x="950" y="400" as="targetPoint" />
          </mxGeometry>
        </mxCell>
        <mxCell id="XGBjS8UDhGrHbcckDDbh-9" value="Consulter historique&amp;nbsp; commandes" style="ellipse;whiteSpace=wrap;html=1;" parent="1" vertex="1">
          <mxGeometry x="414" y="731" width="86" height="54" as="geometry" />
        </mxCell>
        <mxCell id="XGBjS8UDhGrHbcckDDbh-10" value="" style="endArrow=block;html=1;rounded=0;endFill=0;" parent="1" source="XGBjS8UDhGrHbcckDDbh-9" target="PNNhrd_-MMX24OhyJ-Kb-16" edge="1">
          <mxGeometry width="50" height="50" relative="1" as="geometry">
            <mxPoint x="416" y="682" as="sourcePoint" />
            <mxPoint x="334" y="648" as="targetPoint" />
          </mxGeometry>
        </mxCell>
        <mxCell id="3OQd15fnaAW8jSOa3x7e-3" style="rounded=0;orthogonalLoop=1;jettySize=auto;html=1;exitX=0;exitY=0.5;exitDx=0;exitDy=0;endArrow=none;endFill=0;" parent="1" source="3OQd15fnaAW8jSOa3x7e-2" edge="1">
          <mxGeometry relative="1" as="geometry">
            <mxPoint x="70" y="800" as="targetPoint" />
          </mxGeometry>
        </mxCell>
        <mxCell id="3OQd15fnaAW8jSOa3x7e-2" value="Consulter les commandes" style="ellipse;whiteSpace=wrap;html=1;" parent="1" vertex="1">
          <mxGeometry x="250" y="850" width="80" height="50" as="geometry" />
        </mxCell>
        <mxCell id="3OQd15fnaAW8jSOa3x7e-5" value="Paiement" style="shape=umlActor;verticalLabelPosition=bottom;verticalAlign=top;html=1;outlineConnect=0;" parent="1" vertex="1">
          <mxGeometry x="900" y="380" width="30" height="60" as="geometry" />
        </mxCell>
        <mxCell id="e_1VgkBawEJqVITWCL-5-1" value="Utiliser une formule prédéfinie" style="ellipse;whiteSpace=wrap;html=1;" vertex="1" parent="1">
          <mxGeometry x="610" y="800" width="90" height="50" as="geometry" />
        </mxCell>
        <mxCell id="e_1VgkBawEJqVITWCL-5-2" value="" style="endArrow=classic;html=1;rounded=0;dashed=1;exitX=0;exitY=0.5;exitDx=0;exitDy=0;entryX=1;entryY=0.5;entryDx=0;entryDy=0;" edge="1" parent="1" source="e_1VgkBawEJqVITWCL-5-1" target="PNNhrd_-MMX24OhyJ-Kb-30">
          <mxGeometry width="50" height="50" relative="1" as="geometry">
            <mxPoint x="641" y="840" as="sourcePoint" />
            <mxPoint x="459" y="859" as="targetPoint" />
          </mxGeometry>
        </mxCell>
        <mxCell id="e_1VgkBawEJqVITWCL-5-3" value="extends" style="edgeLabel;html=1;align=center;verticalAlign=bottom;resizable=0;points=[];labelPosition=center;verticalLabelPosition=top;" connectable="0" vertex="1" parent="e_1VgkBawEJqVITWCL-5-2">
          <mxGeometry x="-0.1839" y="1" relative="1" as="geometry">
            <mxPoint as="offset" />
          </mxGeometry>
        </mxCell>
        <mxCell id="e_1VgkBawEJqVITWCL-5-5" style="edgeStyle=none;curved=1;rounded=0;orthogonalLoop=1;jettySize=auto;html=1;exitX=0;exitY=0.5;exitDx=0;exitDy=0;fontSize=12;startSize=8;endSize=8;endArrow=none;endFill=0;" edge="1" parent="1" source="e_1VgkBawEJqVITWCL-5-4">
          <mxGeometry relative="1" as="geometry">
            <mxPoint x="70" y="800" as="targetPoint" />
          </mxGeometry>
        </mxCell>
        <mxCell id="e_1VgkBawEJqVITWCL-5-4" value="Modifier la liste noire" style="ellipse;whiteSpace=wrap;html=1;" vertex="1" parent="1">
          <mxGeometry x="250" y="970" width="80" height="50" as="geometry" />
        </mxCell>
        <mxCell id="e_1VgkBawEJqVITWCL-5-7" style="edgeStyle=none;curved=1;rounded=0;orthogonalLoop=1;jettySize=auto;html=1;exitX=0;exitY=0.5;exitDx=0;exitDy=0;fontSize=12;startSize=8;endSize=8;endArrow=none;endFill=0;" edge="1" parent="1" source="e_1VgkBawEJqVITWCL-5-6">
          <mxGeometry relative="1" as="geometry">
            <mxPoint x="70" y="800" as="targetPoint" />
          </mxGeometry>
        </mxCell>
        <mxCell id="e_1VgkBawEJqVITWCL-5-6" value="Consulter les tables" style="ellipse;whiteSpace=wrap;html=1;" vertex="1" parent="1">
          <mxGeometry x="250" y="1030" width="80" height="50" as="geometry" />
        </mxCell>
      </root>
    </mxGraphModel>
  </diagram>
</mxfile>
